<?xml version="1.0"?>
<svg xmlns="http://www.w3.org/2000/svg" xmlns:xlink="http://www.w3.org/1999/xlink" version="1.1" id="Layer_1" x="0px" y="0px" viewBox="0 0 512 512" style="enable-background:new 0 0 512 512;" xml:space="preserve" width="512px" height="512px" class=""><g><circle style="fill:#FF9300" cx="256" cy="256" r="256" data-original="#2D4452" class="active-path" data-old_color="#2D4452"/><path style="fill:#E6E6E6;" d="M396,376c0,13.2-10.8,24-24,24H140c-13.2,0-24-10.8-24-24V232c0-13.2,10.8-24,24-24h232  c13.2,0,24,10.8,24,24V376z" data-original="#E6E6E6"/><path style="fill:#FFD464;" d="M396,376c0,13.2-10.8,24-24,24H140c-13.2,0-24-10.8-24-24V232c0-13.2,10.8-24,24-24h232  c13.2,0,24,10.8,24,24V376z" data-original="#FFD464"/><path style="fill:#E6BF5A;" d="M372,208h-16c13.2,0,24,10.8,24,24v144c0,13.2-10.8,24-24,24h16c13.2,0,24-10.8,24-24V232  C396,218.8,385.2,208,372,208z" data-original="#E6BF5A"/><path style="fill:#E6E6E6;" d="M192,208v-60c0-35.288,28.712-64,64-64s64,28.712,64,64v60h24v-60c0-48.524-39.476-88-88-88  s-88,39.476-88,88v60H192z" data-original="#E6E6E6"/><path style="fill:#CC803D;" d="M288,284c0-17.672-14.328-32-32-32s-32,14.328-32,32c0,10.1,4.692,19.092,12,24.956V336  c0,11.048,8.952,20,20,20s20-8.952,20-20v-27.044C283.308,303.092,288,294.1,288,284z" data-original="#CC803D"/><path style="fill:#B37035;" d="M244,336v-27.044c-7.308-5.864-12-14.856-12-24.956c0-16.312,12.22-29.752,28-31.728  c-1.312-0.164-2.64-0.272-4-0.272c-17.672,0-32,14.328-32,32c0,10.1,4.692,19.092,12,24.956V336c0,11.048,8.952,20,20,20  c1.372,0,2.708-0.14,4-0.404C250.872,353.744,244,345.676,244,336z" data-original="#B37035"/><path style="fill:#F5F5F5;" d="M256,60c-48.524,0-88,39.476-88,88v12c6.624,0,12-5.376,12-12c0-41.908,34.092-76,76-76  s76,34.092,76,76c0,6.624,5.376,12,12,12v-12C344,99.476,304.524,60,256,60z" data-original="#F5F5F5"/><circle style="fill:#FFD464;" cx="256" cy="284" r="12" data-original="#FFD464"/><path style="fill:#E6BF5A;" d="M256,272c-0.688,0-1.344,0.092-2,0.204c5.672,0.952,10,5.86,10,11.796s-4.328,10.844-10,11.796  c0.656,0.112,1.312,0.204,2,0.204c6.624,0,12-5.376,12-12S262.624,272,256,272z" data-original="#E6BF5A"/><g>
	<rect x="116" y="228" style="fill:#FFF1CC;" width="280" height="16" data-original="#FFF1CC"/>
	<rect x="116" y="364" style="fill:#FFF1CC;" width="280" height="16" data-original="#FFF1CC"/>
</g><g>
	<rect x="168" y="204" style="fill:#CCCCCC;" width="24" height="4" data-original="#CCCCCC"/>
	<rect x="320" y="204" style="fill:#CCCCCC;" width="24" height="4" data-original="#CCCCCC"/>
</g><path style="fill:#FF9300" d="M380,456c-37.496,0-68-30.504-68-68s30.504-68,68-68s68,30.504,68,68S417.496,456,380,456z" data-original="#2D4452" class="active-path" data-old_color="#2D4452"/><circle style="fill:#4AB8A1" cx="380" cy="388" r="52" data-original="#4AB8A1" class=""/><path style="fill:#F5F5F5;" d="M372,412c-1.024,0-2.048-0.392-2.828-1.172l-20-20c-1.564-1.564-1.564-4.092,0-5.656  s4.092-1.564,5.656,0L372,402.344l33.172-33.172c1.564-1.564,4.092-1.564,5.656,0s1.564,4.092,0,5.656l-36,36  C374.048,411.608,373.024,412,372,412z" data-original="#F5F5F5"/></g> </svg>
